<svg xmlns="http://www.w3.org/2000/svg" xmlns:xlink="http://www.w3.org/1999/xlink" width="400" zoomAndPan="magnify" viewBox="0 0 300 299.999988" height="400" preserveAspectRatio="xMidYMid meet" version="1.0"><defs><clipPath id="db8d8fe6f8"><path d="M 4.0625 112 L 92 112 L 92 229 L 4.0625 229 Z M 4.0625 112 " clip-rule="nonzero"/></clipPath><clipPath id="4af4deadd6"><path d="M 146 40.046875 L 236 40.046875 L 236 105 L 146 105 Z M 146 40.046875 " clip-rule="nonzero"/></clipPath><clipPath id="293ca25da9"><path d="M 240 193 L 295.8125 193 L 295.8125 245 L 240 245 Z M 240 193 " clip-rule="nonzero"/></clipPath></defs><path fill="#2f2a29" d="M 118.875 181.96875 C 118.875 189.039062 118.875 196.097656 118.875 203.160156 C 118.875 204.46875 118.964844 205.921875 118.460938 207.085938 C 117.714844 208.765625 116.785156 210.660156 115.375 211.660156 C 111.722656 214.335938 107.453125 214.753906 103.0625 213.773438 C 102.535156 213.6875 102.039062 213.511719 101.574219 213.253906 C 101.105469 212.992188 100.699219 212.664062 100.347656 212.261719 C 100 211.859375 99.726562 211.410156 99.535156 210.910156 C 99.34375 210.414062 99.238281 209.898438 99.226562 209.367188 C 98.9375 204.660156 98.859375 199.929688 98.886719 195.210938 C 98.933594 188.148438 99.160156 181.09375 99.265625 174.03125 C 99.488281 159.851562 99.6875 145.667969 99.859375 131.484375 C 99.894531 128.703125 100.785156 126.515625 103.519531 125.597656 C 105.835938 124.699219 108.226562 124.066406 110.6875 123.707031 C 113.460938 123.421875 115.359375 125.257812 116.039062 127.992188 C 116.296875 128.734375 116.609375 129.453125 116.984375 130.144531 C 117.730469 129.703125 118.429688 129.199219 119.085938 128.632812 C 121.910156 125.664062 124.523438 122.472656 127.515625 119.679688 C 128.734375 118.605469 130.089844 117.738281 131.578125 117.078125 C 133.0625 116.417969 134.617188 115.996094 136.230469 115.808594 C 140.773438 115.15625 144.28125 117.117188 146.703125 121.421875 C 147.09375 122.074219 147.527344 122.691406 148.011719 123.277344 C 149.324219 124.910156 149.546875 124.917969 150.75 123.152344 C 152.195312 121.027344 153.417969 118.738281 154.996094 116.726562 C 157.695312 113.273438 160.757812 110.1875 165.273438 109.160156 C 172.066406 107.5625 177.5 109.566406 182.066406 114.847656 C 187.035156 120.601562 188.546875 127.59375 189.757812 134.695312 C 192.265625 149.359375 191.402344 164.117188 191.015625 178.914062 C 190.929688 182.183594 190.746094 185.488281 190.574219 188.769531 C 190.378906 192.496094 188.257812 194.972656 184.929688 196.097656 C 182.214844 197.003906 179.429688 197.519531 176.570312 197.636719 C 172.863281 197.785156 171.128906 196.015625 171.128906 192.273438 C 171.128906 186.894531 171.296875 181.511719 171.632812 176.128906 C 172.230469 166.152344 172.996094 156.171875 172.097656 146.1875 C 171.773438 142.683594 171.054688 139.257812 169.941406 135.917969 C 168.578125 131.824219 164.953125 131.242188 161.972656 134.375 C 159.226562 137.261719 158.472656 141.042969 157.394531 144.710938 C 154.773438 153.492188 155.246094 162.527344 154.976562 171.519531 C 154.75 179.058594 154.976562 186.605469 154.90625 194.152344 C 154.898438 195.527344 154.738281 196.890625 154.421875 198.230469 C 153.359375 202.65625 150.292969 205.214844 145.429688 205.542969 C 143.519531 205.75 141.644531 205.574219 139.804688 205.019531 C 136.277344 203.710938 135.878906 200.390625 135.917969 197.269531 C 135.917969 188.597656 136.1875 179.921875 136.257812 171.25 C 136.316406 164.3125 136.324219 157.375 136.171875 150.4375 C 136.054688 147.972656 135.703125 145.539062 135.121094 143.140625 C 134.320312 139.414062 132.304688 138.394531 128.671875 139.683594 C 125.640625 140.769531 123.863281 143.140625 122.535156 145.882812 C 120.269531 150.34375 119.074219 155.074219 118.945312 160.078125 C 118.875 167.375 118.945312 174.671875 118.945312 181.96875 Z M 118.875 181.96875 " fill-opacity="1" fill-rule="nonzero"/><path fill="#2f2a29" d="M 200.945312 167.191406 C 200.945312 149.957031 200.945312 132.71875 200.945312 115.476562 C 200.945312 112.859375 201.007812 110.34375 202.3125 107.910156 C 204.40625 103.988281 209.242188 101.84375 213.4375 103.253906 C 215.289062 103.910156 216.332031 105.21875 217.03125 106.988281 C 217.808594 108.910156 218.050781 108.949219 219.648438 107.695312 C 220.035156 107.429688 220.382812 107.121094 220.691406 106.765625 C 224.199219 102.019531 229.09375 99.703125 234.800781 99.292969 C 243.996094 98.640625 252.605469 100.507812 260.242188 105.996094 C 267.683594 111.34375 271.433594 118.84375 273.613281 127.519531 C 275.277344 133.71875 275.476562 139.964844 274.210938 146.253906 C 272.5 154.238281 270.628906 162.320312 265.898438 169.226562 C 260.144531 177.621094 252.558594 183.53125 242.195312 184.917969 C 240.5625 185.164062 238.921875 185.238281 237.273438 185.140625 C 235.625 185.042969 234.003906 184.773438 232.410156 184.339844 C 230.816406 183.902344 229.285156 183.304688 227.816406 182.550781 C 226.347656 181.792969 224.972656 180.894531 223.695312 179.851562 C 223.378906 179.578125 223.046875 179.320312 222.707031 179.078125 C 220.917969 177.96875 219.242188 178.699219 219.203125 180.777344 C 219.121094 185.507812 219.203125 190.234375 219.203125 194.953125 C 219.203125 202.917969 219.113281 210.882812 219.320312 218.839844 C 219.523438 226.394531 215.023438 228.925781 209.078125 229.144531 C 206.980469 229.179688 204.988281 228.742188 203.097656 227.839844 C 200.320312 226.53125 199.824219 223.757812 199.871094 220.992188 C 199.988281 212.132812 200.199219 203.277344 200.359375 194.425781 C 200.53125 185.328125 200.695312 176.234375 200.851562 167.144531 Z M 218.574219 143.320312 C 218.785156 147.53125 218.574219 151.667969 220.644531 155.65625 C 223.125 160.515625 226.351562 164.273438 231.769531 165.753906 C 239.292969 167.804688 244.921875 166.117188 249.042969 160.15625 C 256.714844 149.039062 257.636719 136.839844 251.558594 124.734375 C 246.976562 115.582031 236.46875 113.363281 227.398438 119.628906 C 222.371094 123.09375 220.632812 128.671875 219.328125 134.234375 C 218.648438 137.191406 218.804688 140.285156 218.574219 143.320312 Z M 218.574219 143.320312 " fill-opacity="1" fill-rule="nonzero"/><g clip-path="url(#db8d8fe6f8)"><path fill="#2f2a29" d="M 27.582031 180.132812 C 27.582031 174.625 27.582031 169.117188 27.582031 163.609375 C 27.582031 160.574219 26.753906 159.683594 23.730469 159.882812 C 20.273438 160.082031 16.804688 160.339844 13.375 160.804688 C 7.738281 161.5625 4.445312 158.984375 4.257812 153.308594 C 4.207031 151.632812 4.339844 149.96875 4.65625 148.320312 C 5.375 144.523438 7.765625 142.496094 11.855469 141.945312 C 16.175781 141.355469 20.503906 140.820312 24.808594 140.140625 C 27.570312 139.707031 28.277344 138.832031 28.308594 136.074219 C 28.371094 131.496094 28.355469 126.859375 28.355469 122.25 C 28.355469 117.367188 29.539062 115.292969 33.480469 113.585938 C 37.421875 111.878906 42.605469 113.023438 45.261719 115.914062 C 46.859375 117.660156 47.285156 119.796875 47.371094 122.042969 C 47.507812 125.925781 47.585938 129.816406 47.710938 133.707031 C 47.78125 135.910156 48.507812 136.839844 50.667969 136.53125 C 54.851562 135.9375 58.992188 135.054688 63.105469 134.175781 C 69.460938 132.816406 75.78125 131.308594 82.136719 129.964844 C 86.71875 129 89.335938 130.621094 89.957031 135.144531 C 90.308594 137.996094 90.292969 140.84375 89.90625 143.691406 C 89.546875 146.757812 87.335938 148.472656 84.410156 149.09375 C 73.449219 151.40625 62.472656 153.6875 51.488281 155.929688 C 47.9375 156.65625 46.667969 158.015625 46.65625 161.621094 C 46.617188 172.574219 46.570312 183.53125 46.65625 194.484375 C 46.65625 196.824219 47.066406 199.089844 47.878906 201.285156 C 48.695312 203.476562 49.867188 205.460938 51.394531 207.234375 C 54.117188 210.445312 57.789062 210.871094 61.574219 209.914062 C 67.515625 208.410156 70.371094 203.957031 71.789062 198.375 C 73.097656 193.183594 73.308594 187.867188 73.25 182.539062 C 73.191406 181.402344 73.25 180.269531 73.425781 179.144531 C 74.242188 174.953125 77.632812 172.234375 82.03125 172.113281 C 86.613281 171.992188 89.410156 173.839844 90.28125 178.5625 C 92.503906 190.625 91.167969 202.371094 84.9375 213.035156 C 80.355469 220.882812 73.15625 225.675781 64.113281 227.421875 C 55.066406 229.164062 46.441406 228.367188 38.78125 222.882812 C 35.050781 220.214844 32.78125 216.34375 30.8125 212.238281 C 28.101562 206.574219 27.804688 200.546875 27.625 194.492188 C 27.480469 189.703125 27.625 184.910156 27.625 180.105469 Z M 27.582031 180.132812 " fill-opacity="1" fill-rule="nonzero"/></g><path fill="#2f2a29" d="M 182.203125 212.640625 C 183.542969 212.863281 184.855469 213.203125 186.132812 213.664062 C 187.867188 214.394531 188.625 215.957031 188.75 217.835938 C 188.804688 218.242188 188.785156 218.648438 188.699219 219.050781 C 188.609375 219.453125 188.457031 219.828125 188.238281 220.175781 C 188.019531 220.523438 187.75 220.828125 187.425781 221.082031 C 187.101562 221.335938 186.746094 221.527344 186.355469 221.660156 C 182.710938 222.949219 179 224.015625 175.226562 224.855469 C 166.589844 226.621094 157.882812 228.082031 149.21875 229.742188 C 130.589844 233.3125 112.210938 237.769531 93.886719 242.726562 C 85.3125 245.046875 76.742188 247.363281 68.214844 249.835938 C 60.101562 252.1875 52.042969 254.765625 43.941406 257.179688 C 42.730469 257.515625 41.492188 257.671875 40.234375 257.640625 C 37.992188 257.640625 36.871094 256.464844 37.015625 254.269531 C 37.019531 253.304688 37.238281 252.394531 37.675781 251.539062 C 38.113281 250.679688 38.722656 249.96875 39.503906 249.402344 C 43.253906 246.652344 47.566406 245.277344 51.90625 244.023438 C 68.550781 239.203125 85.179688 234.324219 101.910156 229.820312 C 113.691406 226.648438 125.601562 223.871094 137.527344 221.253906 C 150.808594 218.34375 164.171875 215.808594 177.503906 213.144531 C 178.859375 212.878906 180.28125 212.84375 182.203125 212.640625 Z M 182.203125 212.640625 " fill-opacity="1" fill-rule="nonzero"/><g clip-path="url(#4af4deadd6)"><path fill="#2f2a29" d="M 208.023438 65.617188 C 206.589844 65.003906 205.089844 64.710938 203.527344 64.742188 C 195.675781 64.742188 187.820312 64.867188 179.964844 64.847656 C 177.160156 64.847656 174.359375 64.53125 171.5625 64.34375 C 171.265625 64.320312 170.976562 64.253906 170.699219 64.148438 C 169.546875 63.695312 168.546875 62.96875 168.414062 62.183594 C 168.285156 61.402344 169.21875 60.222656 169.992188 59.699219 C 171.304688 58.738281 172.738281 58.023438 174.292969 57.550781 C 180.777344 55.765625 187.304688 54.101562 193.828125 52.460938 C 201.167969 50.625 208.535156 48.917969 215.859375 47.023438 C 217.769531 46.53125 220.441406 45.792969 221.304688 44.40625 C 220.816406 44.40625 220.324219 44.300781 219.832031 44.316406 C 208.632812 44.601562 197.433594 44.863281 186.242188 45.210938 C 179.777344 45.40625 173.308594 45.617188 166.863281 46.054688 C 161.265625 46.425781 155.738281 47.144531 150.121094 47.667969 C 149.171875 47.757812 148.226562 47.71875 147.285156 47.546875 C 146.894531 47.464844 146.59375 46.890625 146.246094 46.523438 C 146.585938 46.238281 146.902344 45.78125 147.273438 45.6875 C 151.679688 44.6875 156.0625 43.40625 160.527344 42.84375 C 178.082031 40.648438 195.761719 40.398438 213.417969 40.066406 C 219.179688 39.929688 224.914062 40.265625 230.617188 41.070312 C 231.929688 41.277344 233.117188 41.777344 234.179688 42.574219 C 235.34375 43.367188 235.421875 44.472656 234.269531 45.542969 C 232.726562 46.820312 230.984375 47.691406 229.035156 48.160156 C 221.539062 50.121094 213.980469 51.71875 206.460938 53.632812 C 197.515625 55.914062 188.613281 58.378906 179.699219 60.773438 C 179.269531 60.921875 178.851562 61.097656 178.449219 61.300781 C 181.007812 61.300781 183.3125 61.300781 185.613281 61.300781 C 192.734375 61.261719 199.851562 61.179688 206.972656 61.183594 C 208.347656 61.234375 209.707031 61.425781 211.042969 61.761719 C 213.492188 62.304688 214.820312 63.683594 214.925781 65.605469 C 215.027344 67.527344 213.9375 69.164062 211.578125 69.945312 C 208.195312 71.070312 204.746094 72.027344 201.296875 72.949219 C 196.984375 74.105469 192.636719 75.144531 188.3125 76.269531 C 187.65625 76.445312 187.035156 76.699219 186.445312 77.035156 C 186.261719 77.265625 186.210938 77.402344 186.445312 77.589844 C 187.257812 77.726562 188.070312 77.886719 188.886719 77.984375 C 192.972656 78.472656 197.082031 78.820312 201.140625 79.472656 C 203.632812 79.878906 204.699219 81.195312 204.859375 83.179688 C 204.988281 84.902344 203.929688 86.621094 201.871094 87.445312 C 198.730469 88.699219 195.5 89.734375 192.34375 90.957031 C 191.421875 91.40625 190.550781 91.933594 189.726562 92.539062 C 190.445312 93.191406 191.125 93.925781 191.90625 94.5 C 192.945312 95.277344 194.136719 95.867188 195.144531 96.683594 C 196.324219 97.636719 196.667969 98.992188 195.601562 100.144531 C 194.316406 101.429688 192.933594 102.609375 191.460938 103.679688 C 191.171875 103.902344 188.925781 104.660156 189.632812 103.832031 C 190.40625 102.863281 190.859375 102.289062 191.324219 101.726562 C 192.953125 99.761719 192.828125 98.644531 190.667969 97.3125 C 189.398438 96.539062 188.003906 96.003906 186.6875 95.265625 C 185.992188 94.921875 185.355469 94.484375 184.785156 93.957031 C 183.382812 92.53125 183.671875 90.753906 185.570312 89.871094 C 189.136719 88.222656 192.769531 86.730469 196.402344 85.175781 C 196.78125 85.011719 197.1875 84.855469 197.539062 84.683594 C 198.324219 84.3125 199 83.863281 199.109375 82.972656 C 198.765625 82.316406 197.71875 82.03125 196.992188 81.964844 C 193.175781 81.636719 189.339844 81.507812 185.53125 81.160156 C 184.035156 81.050781 182.601562 80.699219 181.230469 80.101562 C 178.90625 79.023438 178.566406 76.964844 180.621094 75.464844 C 182.542969 74.042969 184.652344 72.984375 186.945312 72.292969 C 192.316406 70.757812 197.800781 69.605469 203.226562 68.226562 C 204.863281 67.816406 206.433594 67.167969 208.039062 66.625 C 208.667969 66.214844 208.484375 65.917969 208.023438 65.617188 Z M 208.023438 65.617188 " fill-opacity="1" fill-rule="nonzero"/></g><path fill="#2f2a29" d="M 84.878906 116.398438 C 73.753906 115.972656 65.179688 114.050781 57.914062 107.785156 C 50.804688 101.660156 49.464844 91.035156 56.964844 83.449219 C 62.625 77.722656 69.8125 74.695312 77.691406 73.414062 C 82.53125 72.613281 87.375 72.550781 92.234375 73.21875 C 97.089844 73.886719 101.738281 75.257812 106.175781 77.335938 C 110.105469 79.121094 113.722656 81.441406 116.179688 85.183594 C 119.890625 90.859375 119.339844 97.839844 114.667969 103.589844 C 110.085938 109.238281 103.878906 112.375 97.054688 114.179688 C 92.476562 115.417969 87.707031 115.90625 84.878906 116.398438 Z M 84.507812 76 C 74.8125 76.570312 64.9375 78.664062 57.671875 87.535156 C 54.191406 91.773438 54.484375 98.039062 57.148438 101.601562 C 58.652344 103.65625 60.433594 105.441406 62.492188 106.945312 C 64.546875 108.453125 66.78125 109.617188 69.199219 110.433594 C 75.511719 112.578125 81.984375 113.277344 88.609375 112.527344 C 95.3125 111.828125 101.582031 109.984375 107.066406 105.988281 C 108.507812 104.941406 109.644531 103.496094 110.996094 102.359375 C 113.855469 99.992188 115.011719 96.820312 115.300781 93.296875 C 115.679688 88.765625 113.253906 85.71875 109.765625 83.179688 C 102.5 77.867188 94.1875 76.257812 84.507812 76 Z M 84.507812 76 " fill-opacity="1" fill-rule="nonzero"/><path fill="#2f2a29" d="M 294.820312 136.484375 C 294.96875 140.652344 292.554688 142.644531 289.144531 142.875 C 285.871094 143.097656 282.179688 140.003906 282.1875 137.28125 C 282.1875 133.882812 285.511719 130.796875 289.160156 130.796875 C 293.070312 130.796875 294.820312 132.53125 294.820312 136.484375 Z M 294.820312 136.484375 " fill-opacity="1" fill-rule="nonzero"/><path fill="#2f2a29" d="M 284.046875 115.398438 C 280.617188 115.320312 278.554688 113.46875 278.640625 110.550781 C 278.730469 107.363281 281.074219 105.242188 284.433594 105.320312 C 284.761719 105.332031 285.085938 105.375 285.40625 105.449219 C 285.730469 105.523438 286.039062 105.628906 286.339844 105.765625 C 286.636719 105.898438 286.921875 106.066406 287.1875 106.257812 C 287.457031 106.449219 287.699219 106.667969 287.925781 106.910156 C 288.148438 107.152344 288.34375 107.414062 288.515625 107.695312 C 288.6875 107.976562 288.828125 108.269531 288.941406 108.578125 C 289.054688 108.890625 289.132812 109.207031 289.183594 109.53125 C 289.230469 109.859375 289.246094 110.183594 289.230469 110.511719 C 289.160156 113.507812 287.082031 115.46875 284.046875 115.398438 Z M 284.046875 115.398438 " fill-opacity="1" fill-rule="nonzero"/><path fill="#2f2a29" d="M 220.957031 84.359375 C 220.957031 84.007812 220.988281 83.65625 221.054688 83.3125 C 221.125 82.964844 221.226562 82.632812 221.359375 82.304688 C 221.496094 81.980469 221.664062 81.671875 221.859375 81.382812 C 222.058594 81.089844 222.28125 80.820312 222.535156 80.574219 C 222.789062 80.328125 223.0625 80.109375 223.359375 79.917969 C 223.652344 79.730469 223.964844 79.570312 224.292969 79.441406 C 224.625 79.3125 224.960938 79.21875 225.308594 79.160156 C 225.65625 79.101562 226.007812 79.078125 226.359375 79.089844 C 226.679688 79.082031 227 79.109375 227.316406 79.167969 C 227.632812 79.226562 227.941406 79.3125 228.242188 79.429688 C 228.539062 79.546875 228.828125 79.691406 229.097656 79.863281 C 229.371094 80.035156 229.625 80.230469 229.859375 80.449219 C 230.09375 80.671875 230.300781 80.914062 230.492188 81.171875 C 230.679688 81.433594 230.839844 81.710938 230.972656 82.003906 C 231.105469 82.296875 231.210938 82.597656 231.289062 82.910156 C 231.363281 83.222656 231.410156 83.539062 231.425781 83.863281 C 231.425781 86.476562 228.578125 89.09375 225.816406 89.09375 C 225.5 89.097656 225.1875 89.070312 224.878906 89.011719 C 224.566406 88.953125 224.265625 88.867188 223.972656 88.75 C 223.683594 88.632812 223.402344 88.488281 223.140625 88.316406 C 222.875 88.144531 222.628906 87.949219 222.40625 87.730469 C 222.179688 87.511719 221.976562 87.269531 221.800781 87.011719 C 221.621094 86.75 221.46875 86.476562 221.347656 86.1875 C 221.222656 85.898438 221.128906 85.601562 221.0625 85.292969 C 220.996094 84.984375 220.960938 84.671875 220.957031 84.359375 Z M 220.957031 84.359375 " fill-opacity="1" fill-rule="nonzero"/><path fill="#2f2a29" d="M 98.390625 105.480469 C 97.484375 102.496094 99.109375 99.332031 98.433594 96.324219 L 97.78125 96.195312 C 97.246094 98.03125 96.71875 99.871094 96.195312 101.707031 C 95.988281 102.105469 95.71875 102.136719 95.542969 101.707031 C 95.421875 100.804688 95.339844 99.902344 95.175781 99.003906 C 95.011719 98.109375 94.757812 97.195312 94.402344 95.695312 C 93.488281 96.714844 92.78125 97.253906 92.4375 97.964844 C 91.902344 99.019531 91.660156 100.214844 91.203125 101.308594 C 91.027344 101.738281 90.960938 102.359375 90.28125 102.429688 C 89.800781 102.203125 89.625 101.503906 89.511719 100.992188 C 89.375 100.300781 89.269531 99.683594 89.171875 98.972656 C 89.117188 98.121094 88.96875 97.285156 88.726562 96.46875 C 87.417969 97.691406 87.125 98.839844 86.59375 99.863281 C 86.15625 100.699219 85.941406 101.671875 85.519531 102.476562 C 85.433594 102.730469 85.28125 102.929688 85.058594 103.082031 C 84.839844 103.234375 84.597656 103.304688 84.328125 103.292969 C 83.851562 103.171875 83.78125 102.542969 83.742188 102.144531 C 83.65625 101.195312 83.742188 100.242188 83.742188 98.875 C 80.878906 101.136719 80.898438 107.375 79.441406 107.09375 C 78.257812 106.820312 80.324219 100.679688 81.824219 97.398438 L 75.09375 97.398438 C 74.441406 100.667969 75.867188 103.394531 76.84375 106.203125 C 76.84375 106.441406 76.84375 106.640625 76.417969 106.628906 C 75.589844 106.484375 74.96875 106.050781 74.550781 105.320312 C 73.835938 103.320312 73.371094 101.261719 73.15625 99.148438 C 73.066406 97.878906 72.746094 97.324219 71.601562 97.34375 C 69.460938 97.390625 67.324219 97.578125 65.183594 97.617188 C 64.847656 97.664062 64.519531 97.625 64.199219 97.503906 C 63.882812 97.378906 63.617188 97.183594 63.398438 96.917969 C 63.359375 96.292969 63.578125 95.777344 64.054688 95.371094 C 64.816406 94.792969 65.636719 94.316406 66.519531 93.949219 C 68.757812 92.832031 71.0625 91.824219 73.230469 90.582031 C 73.8125 90.257812 74.144531 89.277344 74.335938 88.53125 C 74.988281 86.03125 75.433594 83.496094 76.050781 80.992188 C 76.277344 80.371094 76.660156 79.871094 77.203125 79.492188 C 77.640625 82.761719 76.023438 85.894531 76.933594 89.15625 C 84.449219 86.320312 92.074219 85.769531 99.75 85.679688 C 100.371094 85.933594 100.601562 86.464844 99.984375 86.855469 C 99.035156 87.273438 98.042969 87.542969 97.007812 87.660156 C 91.992188 88.417969 86.96875 89.113281 81.953125 89.835938 C 81.363281 89.933594 80.785156 90.070312 80.214844 90.242188 C 76.808594 91.199219 76.59375 91.402344 75.015625 95.167969 L 82.871094 95.167969 C 82.9375 94.707031 83.078125 94.273438 83.289062 93.859375 C 83.574219 93.476562 83.949219 93.261719 84.421875 93.207031 C 84.675781 93.207031 84.984375 93.78125 85.160156 94.152344 C 85.429688 94.722656 85.597656 95.332031 85.816406 95.925781 L 86.46875 96.140625 L 89.53125 91.171875 L 90.902344 95.851562 L 91.351562 95.976562 L 94.152344 91.144531 L 94.722656 91.144531 C 95.015625 91.929688 95.355469 92.6875 95.746094 93.425781 C 96.019531 93.890625 96.53125 94.511719 96.9375 94.511719 C 97.339844 94.511719 97.949219 93.910156 98.121094 93.445312 C 98.402344 92.683594 98.265625 91.765625 98.550781 91.015625 C 98.75 90.511719 99.449219 89.773438 99.808594 89.832031 C 102.210938 90.238281 104.59375 90.8125 106.96875 91.367188 C 107.511719 91.457031 107.996094 91.671875 108.421875 92.023438 C 109.03125 92.675781 109.566406 93.277344 109.566406 94.121094 C 109.488281 95.113281 108.691406 95.375 107.945312 95.558594 C 106.320312 96.007812 104.667969 96.246094 102.984375 96.265625 C 100.882812 96.214844 100.496094 97.441406 100.292969 99.039062 C 100.0625 100.816406 99.835938 102.589844 99.558594 104.355469 C 99.441406 104.773438 99.273438 105.175781 99.054688 105.558594 C 98.859375 105.804688 98.46875 105.851562 98.390625 105.480469 Z M 106.941406 93.707031 C 107.121094 93.65625 107.222656 93.542969 107.253906 93.359375 C 107.285156 93.179688 107.222656 93.035156 107.074219 92.929688 L 100.367188 91.421875 C 100.070312 94.160156 100.253906 94.382812 102.375 94.226562 C 103.898438 94.082031 105.417969 93.890625 106.976562 93.734375 Z M 73.445312 92.726562 L 68.210938 94.886719 C 67.769531 95.121094 67.808594 95.5 68.398438 95.539062 C 69.460938 95.539062 70.519531 95.585938 71.566406 95.539062 C 73.359375 95.558594 73.910156 94.957031 73.445312 92.726562 Z M 73.445312 92.726562 " fill-opacity="1" fill-rule="nonzero"/><g clip-path="url(#293ca25da9)"><path fill="#2f2a29" d="M 294.917969 217.226562 C 285.636719 212.8125 267.191406 216.617188 264.96875 228.171875 C 262.617188 228.929688 260.507812 230.117188 258.636719 231.730469 C 259.605469 229.113281 260.601562 226.464844 261.695312 223.882812 C 262.003906 223.855469 262.277344 223.746094 262.515625 223.550781 C 262.753906 223.359375 262.917969 223.113281 263.003906 222.816406 C 269.59375 220.167969 274.359375 216.070312 276.710938 209.214844 C 277.738281 206.285156 278.109375 203.277344 277.820312 200.1875 C 277.578125 198.023438 276.578125 195.203125 274.417969 194.339844 C 273.804688 193.71875 272.585938 193.71875 272.375 194.796875 C 272.375 194.8125 272.375 194.824219 272.375 194.835938 C 261.53125 196.667969 256.464844 212.164062 260.011719 221.789062 C 258.945312 224.234375 257.996094 226.71875 257.035156 229.210938 C 256.722656 227.570312 256.253906 225.972656 255.621094 224.425781 C 259.164062 220.835938 257.820312 214.074219 256.636719 209.753906 C 255.828125 206.816406 254.355469 204.261719 252.210938 202.09375 C 250.609375 200.394531 247.832031 197.820312 245.15625 196.8125 C 245.023438 196.578125 244.832031 196.417969 244.578125 196.328125 C 244.480469 196.027344 244.292969 195.792969 244.019531 195.632812 C 243.746094 195.472656 243.453125 195.421875 243.140625 195.484375 C 240.5625 195.949219 240.128906 199.789062 240.078125 201.828125 C 239.984375 205.507812 240.964844 209.273438 242.183594 212.714844 C 243.28125 216.140625 244.984375 219.238281 247.296875 222 C 248.394531 223.242188 251.097656 225.195312 252.847656 224.203125 C 252.898438 224.585938 253.070312 224.902344 253.363281 225.152344 C 254.324219 227.335938 254.878906 229.621094 255.027344 232.003906 C 255.125 235.78125 252.597656 238.902344 252.171875 242.578125 C 252.140625 242.8125 252.226562 242.996094 252.425781 243.125 C 252.425781 243.171875 252.425781 243.210938 252.425781 243.25 C 252.257812 244.09375 253.515625 244.753906 253.90625 243.871094 C 255.164062 241.078125 256.257812 238.230469 257.324219 235.371094 C 257.542969 235.390625 257.722656 235.3125 257.851562 235.136719 C 259.527344 233.140625 262.074219 232.101562 264.496094 231.25 C 265.949219 233.109375 268.730469 233.867188 270.921875 234.167969 C 274.457031 234.558594 277.949219 234.3125 281.394531 233.4375 C 283.21875 233.039062 284.953125 232.398438 286.59375 231.507812 C 288.234375 230.621094 289.71875 229.519531 291.042969 228.203125 C 293.007812 226.242188 295.402344 222.546875 294.96875 219.46875 C 295.730469 218.925781 295.984375 217.710938 294.925781 217.199219 M 274.230469 208.503906 C 272.460938 213.945312 268.585938 217.410156 263.605469 219.679688 C 263.863281 219.167969 264.117188 218.65625 264.390625 218.148438 C 268.019531 211.308594 272.476562 204.761719 274.351562 197.183594 L 274.515625 197.445312 C 275.09375 198.65625 275.382812 199.929688 275.378906 201.269531 C 275.449219 203.773438 275.0625 206.203125 274.222656 208.5625 M 263.09375 207.046875 C 263.84375 204.871094 264.976562 202.917969 266.492188 201.183594 C 268.007812 199.453125 269.792969 198.070312 271.851562 197.039062 C 269.890625 204.390625 265.5625 210.84375 262.035156 217.535156 C 261.894531 216.667969 261.8125 215.796875 261.785156 214.917969 C 261.773438 212.226562 262.207031 209.613281 263.09375 207.070312 M 253.808594 209.589844 C 254.730469 212.425781 256.375 218.519531 254.503906 221.703125 C 251.617188 214.511719 247.988281 207.746094 245.992188 200.277344 C 247.191406 201.101562 248.320312 202.007812 249.390625 202.992188 C 251.457031 204.792969 252.933594 206.992188 253.820312 209.589844 M 250.96875 221.992188 C 249.984375 221.460938 249.164062 220.742188 248.507812 219.839844 C 246.574219 217.507812 245.34375 214.492188 244.375 211.65625 C 243.21875 208.269531 241.5625 203.070312 243.023438 199.414062 C 244.140625 206.605469 248.132812 213.617188 251.113281 220.109375 C 251.425781 220.796875 251.765625 221.507812 252.09375 222.226562 C 251.703125 222.21875 251.328125 222.140625 250.96875 221.992188 M 277.625 219.578125 C 281.554688 218.273438 286.394531 217.617188 290.625 218.613281 C 284.195312 220.28125 278.148438 223.253906 272.03125 225.726562 C 270.550781 226.328125 268.90625 226.832031 267.246094 227.386719 C 269.109375 223.410156 273.582031 220.941406 277.625 219.578125 M 288.8125 226.9375 C 286.539062 229.101562 283.671875 230.207031 280.675781 230.910156 C 277.925781 231.554688 275.144531 231.796875 272.324219 231.632812 C 270.632812 231.585938 269.074219 231.101562 267.65625 230.179688 C 269.863281 229.421875 272.050781 228.628906 274.203125 227.765625 C 280.316406 225.339844 286.21875 222.632812 292.582031 220.960938 C 292.464844 221.523438 292.292969 222.074219 292.070312 222.605469 C 291.261719 224.261719 290.171875 225.707031 288.796875 226.9375 " fill-opacity="1" fill-rule="nonzero"/></g></svg>